<?xml version="1.0" encoding="utf-8"?>
<!-- Generator: Adobe Illustrator 16.0.0, SVG Export Plug-In . SVG Version: 6.00 Build 0)  -->
<!DOCTYPE svg PUBLIC "-//W3C//DTD SVG 1.1//EN" "http://www.w3.org/Graphics/SVG/1.1/DTD/svg11.dtd">
<svg version="1.1" id="Capa_1" xmlns="http://www.w3.org/2000/svg" xmlns:xlink="http://www.w3.org/1999/xlink" x="0px" y="0px"
	 width="640px" height="480px" viewBox="0 0 640 480" enable-background="new 0 0 640 480" xml:space="preserve">
<g>
	<g>
		<g>
			<path fill="#010002" d="M351.769,268.751c5.568,2.372,11.121,4.813,16.744,7.008c2.699,1.068,3.715,2.838,4.279,5.635
				c1.262,6.391,0.246,12.52-1.262,18.676c-1.125,4.677-3.209,6.35-7.953,7.117c-1.4,0.232-2.811,1.056-3.963,1.947
				c-1.041,0.809-1.988,1.741-2.947,2.661c11.461,4.881,23.324,10.312,35.156,16.385c5.678,2.921,10.682,6.568,14.893,10.902
				l3.881,4.017v19.24c30.963,0,61.924,0,92.875,0c-2.619-17.553-13.314-27.959-29.482-33.938
				c-10.531-3.881-20.857-8.379-31.1-13.014c-2.92-1.358-5.088-4.266-7.705-6.267c-1.152-0.878-2.578-1.715-3.934-1.961
				c-4.771-0.754-6.855-2.44-7.982-7.131c-1.467-6.143-2.551-12.285-1.262-18.662c0.563-2.797,1.576-4.566,4.279-5.635
				c5.648-2.182,11.162-4.636,16.744-7.008c4.182-1.77,4.414-3.207,2.92-7.528c-4.797-13.561-8.35-27.384-9.502-41.892
				c-0.754-9.16-0.508-18.525-2.699-27.521h-0.344c-0.193-0.837-0.287-1.673-0.508-2.496c-4.045-15.866-21.047-24.49-35.352-25.41
				c-0.137-0.014-0.246-0.042-0.342-0.042c-1.096-0.069-2.139,0.097-3.209,0.166c-6.018,0.836-10.957,4.649-16.688,6.322
				c-7.445,2.195-12.025,9.05-14.809,16.427c-3.936,10.491-3.209,21.68-4.1,32.539c-1.152,14.521-4.719,28.317-9.504,41.877
				C347.339,265.514,347.614,266.996,351.769,268.751z"/>
		</g>
		<path fill="#010002" d="M385.528,340.452c-21.803-11.162-44.347-20.433-67.165-29.193c-1.715-0.657-3.744-1.946-4.442-3.456
			c-1.853-4.113-3.139-8.462-4.47-12.794c-0.836-2.755-1.549-5.375-4.607-6.678c-0.809-0.342-1.521-1.96-1.521-2.977
			c0.166-10.01-2.139-20.525,5.279-29.274c0.246-0.288,0.287-0.671,0.48-0.975c3.988-8.776,4.717-18.787,10.311-26.958
			c0.139-0.193,0.166-0.453,0.193-0.699c0.644-6.226,1.343-12.438,1.851-18.663c0.057-0.782-0.617-2.14-1.289-2.386
			c-3.086-1.096-2.92-3.564-2.893-6.046c0-12.164,0-24.325-0.027-36.489c0-7.076-2.085-13.37-7.418-18.168
			c-6.074-5.458-12.342-10.75-18.58-16.043c-3.031-2.564-3.264-4.511-0.453-7.335c1.262-1.234,2.865-2.112,4.279-3.153
			c-0.287-0.48-0.619-0.947-0.906-1.427c-1.904,0-3.826-0.26-5.648,0.042c-6.91,1.11-13.875,2.084-20.65,3.702
			c-12.959,3.059-25.559,7.117-36.105,15.783c-7.186,5.952-12.917,12.862-13.671,22.625c-0.342,5.129-0.301,10.27-0.342,15.399
			c-0.042,8.351,0.069,16.73-0.11,25.065c-0.028,1.372-0.823,3.592-1.742,3.895c-3.374,1.096-3.47,3.25-3.031,6.074
			c0.315,1.933,0.083,3.962,0.494,5.855c1.165,5.224,2.413,10.45,3.909,15.59c1.124,3.826,3.305,7.446,3.909,11.341
			c1.206,7.774,4.086,14.563,9.351,20.419c0.851,0.961,1.521,2.592,1.427,3.881c-0.412,5.994-1.016,11.971-1.838,17.923
			c-0.179,1.165-1.4,2.894-2.399,3.112c-3.976,0.85-4.594,3.895-5.527,6.992c-1.262,4.101-2.579,8.187-4.196,12.15
			c-0.48,1.234-1.728,2.537-2.935,3.059c-7.089,3.101-14.287,5.938-21.418,8.898c-7.598,3.181-15.234,6.239-22.625,9.762
			c-7.652,3.661-15.057,7.747-22.516,11.767c-4.387,2.33-8.515,4.937-11.957,8.199v13.095c86.757,0,173.517,0,260.287,0v-13.644
			C393.618,345.415,389.876,342.674,385.528,340.452z"/>
	</g>
</g>
</svg>
