<?xml version="1.0" encoding="utf-8"?>
<!-- Generator: Adobe Illustrator 16.0.0, SVG Export Plug-In . SVG Version: 6.00 Build 0)  -->
<!DOCTYPE svg PUBLIC "-//W3C//DTD SVG 1.1//EN" "http://www.w3.org/Graphics/SVG/1.1/DTD/svg11.dtd">
<svg version="1.1" id="Layer_1" xmlns="http://www.w3.org/2000/svg" xmlns:xlink="http://www.w3.org/1999/xlink" x="0px" y="0px"
	 width="461px" height="135px" viewBox="0 0 461 135" enable-background="new 0 0 461 135" xml:space="preserve">
<g>
	<path fill="#B01F24" d="M44.109,48.359c-0.959,0.636,0.615,1.565,1.465,2.206l6.638,4.874C51.671,56.9,39.116,73.188,38.706,74.417
		c3.036,2.694,5.814,5.694,8.852,8.694l9.028,8.798c1.519,1.387,2.368,2.899,4.836,3.847l21.534,5.488
		c0.438-0.948,15.258-20.031,15.36-20.057c0.541-0.232,8.848,1.412,10.651,1.614c0.281,0.027,1.619,0.296,1.671-0.202
		c0.064-0.625-7.28-19.905-7.9-21.496c-1.335-3.539-2.596-7.386-4.141-10.644c-0.541-1.154-0.95-1.283-2.469-1.334
		c-13.507-0.539-12.324-1.462-8.696,7.028c0.875,1.974,8.773,19.646,8.464,20.134L85.454,56.183c-0.518-1-2.035-4.259-2.628-4.951
		c-1.801-2.103-3.6,1.258-4.218,2.026c-2.573,3.257-4.424,5.874-6.74,8.746l-8.206,10.697c-1.956,2.538-0.258,3.386,2.727,7.281
		l13.378,17.441c-0.669-0.463-2.831-2.949-3.422-3.693c-3.653-4.513-9.827-10.722-13.712-15.412
		c-1.261-1.539-1.906-2.516-4.632-2.694c-4.603-0.308-9.262-0.771-13.995-1.001c0.233-0.153,0.104-0.104,0.515-0.229
		c1.466-0.412,13.917-0.054,15.54-0.489c1.594-0.436,6.92-8.592,8.104-10.181c1.595-2.128,3.473-4.695,5.146-7.028
		c0.901-1.231,1.724-2.333,2.599-3.514c0.72-0.974,2.545-2.744,1.337-4.027c-0.9-0.719-3.807,0.436-4.863,0.744
		c-1.775,0.487-3.343,0.898-5.146,1.41c-1.749,0.488-8.72,2.745-10.315,2.745l17.648-6.746c0.978-0.359,3.528-1.067,2.366-2.154
		c-1.161-1.086-10.316-7.156-12.993-6.541c-1.105,0.231-5.582,2.642-6.636,3.181c-1.931,1-4.373,2.231-6.56,3.283
		C49.384,45.743,45.036,47.616,44.109,48.359C44.109,48.359,45.068,47.725,44.109,48.359z"/>
	<path fill="#F4F5F5" d="M92.193,47.257l4.864,0.05c1-1.308,3.933-5.284,5.452-5.822c3.55-1.308,3.936,1.77,8.747-2.128
		c4.399-3.514,9.211-14.286,3.397-14.082c-5.483,0.205-12.478,5.362-13.79,8.9c-1.519,4.078,2.42,3.463-2.573,7.901
		C97.441,42.846,92.551,46.641,92.193,47.257L92.193,47.257z"/>
	<path fill="#F4F5F5" d="M104.925,54.362l-2.21,0.563l1.39,3.334c0,0,0.978-0.718,1.493-0.821c2.056-0.358-1.854,1.258,5.583-1.178
		c3.37-1.13,22.097-7.286,22.612-7.695c1.234-0.976,0.076-2.412-1.724-2.437l-14.175,0.975c-2.985,0.204-5.711,0.641-8.027,1.974
		C108.066,50.103,105.236,52.181,104.925,54.362L104.925,54.362z"/>
	<path fill="#F4F5F5" d="M90.159,25.481c-1.852-0.179-1.39,1.565-1.775,4.822c-0.488,4.129,0.025,5.284-1.724,5.335
		c-0.103-1.873,1.158-8.9,0.746-9.772c-1.853-0.872-1.596,2.873-1.853,4.591c-0.563,3.718,0.053,5.309-1.698,5.386
		c-0.514-1.745,1.235-7.49,0.851-9.747c-1.671-0.513-1.519,1.667-1.906,4.694c-0.256,1.924-0.718,4.334-0.745,6.31
		c-0.077,3.103,0.565,3.257,2.187,4.668c1.724,1.462,0.669,3.284,0.54,5.515c0.745-0.128,1.234-0.256,2.263-0.36
		c0.465-2.462-0.256-3.565,1.493-5.026c1.674-1.36,2.316-1.104,3.244-3.437c0.229-0.538,3.084-16.44,0.126-13.003
		c-0.464,0.539-0.591,7.027-1.002,9.053c-0.207,1.103-1.235,1.771-1.337,0.231C89.466,33.433,90.751,27.021,90.159,25.481
		L90.159,25.481z"/>
</g>
<g enable-background="new    ">
	<path fill="#EEEEEE" d="M174.186,45.839h20.893v4.202h-15.885v12.893h14.677v4.144h-14.677v17.555h-5.008V45.839z"/>
	<path fill="#EEEEEE" d="M225.471,70.473c0,10.303-7.137,14.792-13.871,14.792c-7.54,0-13.353-5.525-13.353-14.331
		c0-9.324,6.101-14.792,13.813-14.792C220.061,56.142,225.471,61.955,225.471,70.473z M203.37,70.761
		c0,6.101,3.511,10.705,8.461,10.705c4.834,0,8.46-4.547,8.46-10.82c0-4.72-2.359-10.705-8.346-10.705
		C205.96,59.94,203.37,65.466,203.37,70.761z"/>
	<path fill="#EEEEEE" d="M257.072,70.473c0,10.303-7.137,14.792-13.871,14.792c-7.539,0-13.353-5.525-13.353-14.331
		c0-9.324,6.101-14.792,13.813-14.792C251.662,56.142,257.072,61.955,257.072,70.473z M234.971,70.761
		c0,6.101,3.512,10.705,8.461,10.705c4.835,0,8.461-4.547,8.461-10.82c0-4.72-2.359-10.705-8.346-10.705
		C237.562,59.94,234.971,65.466,234.971,70.761z"/>
	<path fill="#EEEEEE" d="M287.523,43.767v33.671c0,2.475,0.057,5.295,0.229,7.194h-4.547l-0.23-4.835h-0.114
		c-1.555,3.108-4.95,5.468-9.498,5.468c-6.733,0-11.914-5.697-11.914-14.158c-0.057-9.267,5.699-14.965,12.49-14.965
		c4.26,0,7.137,2.015,8.403,4.259h0.115V43.767H287.523z M282.458,68.113c0-0.633-0.058-1.496-0.23-2.13
		c-0.748-3.223-3.511-5.87-7.31-5.87c-5.238,0-8.346,4.604-8.346,10.763c0,5.641,2.763,10.303,8.23,10.303
		c3.396,0,6.504-2.245,7.425-6.044c0.173-0.69,0.23-1.381,0.23-2.187V68.113z"/>
</g>
<g enable-background="new    ">
	<path fill="#EC1C24" d="M297.713,64.314c0-2.878-0.057-5.237-0.23-7.54h4.433l0.229,4.489h0.174
		c1.554-2.647,4.144-5.122,8.748-5.122c3.799,0,6.676,2.302,7.885,5.583h0.115c0.863-1.554,1.957-2.763,3.108-3.626
		c1.669-1.267,3.511-1.957,6.158-1.957c3.684,0,9.151,2.417,9.151,12.087v16.403h-4.949V68.861c0-5.353-1.957-8.576-6.044-8.576
		c-2.878,0-5.122,2.13-5.985,4.604c-0.23,0.691-0.403,1.612-0.403,2.533v17.209h-4.95V67.94c0-4.432-1.957-7.655-5.813-7.655
		c-3.166,0-5.468,2.533-6.273,5.065c-0.288,0.748-0.403,1.611-0.403,2.475v16.807h-4.95V64.314z"/>
	<path fill="#EC1C24" d="M361.145,84.632l-0.402-3.511h-0.172c-1.555,2.187-4.548,4.144-8.52,4.144c-5.641,0-8.518-3.971-8.518-8
		c0-6.734,5.986-10.418,16.748-10.36v-0.575c0-2.303-0.633-6.446-6.33-6.446c-2.59,0-5.296,0.806-7.252,2.072l-1.152-3.339
		c2.303-1.496,5.641-2.475,9.152-2.475c8.518,0,10.59,5.813,10.59,11.396v10.417c0,2.418,0.115,4.777,0.461,6.677H361.145z
		 M360.396,70.415c-5.525-0.114-11.799,0.863-11.799,6.274c0,3.28,2.188,4.834,4.777,4.834c3.626,0,5.928-2.302,6.734-4.662
		c0.172-0.518,0.287-1.093,0.287-1.611V70.415z"/>
	<path fill="#EC1C24" d="M372.773,79.452c1.496,0.979,4.145,2.014,6.677,2.014c3.684,0,5.41-1.842,5.41-4.144
		c0-2.417-1.438-3.741-5.181-5.122c-5.007-1.785-7.367-4.548-7.367-7.886c0-4.489,3.627-8.173,9.612-8.173
		c2.82,0,5.296,0.806,6.85,1.727l-1.267,3.684c-1.094-0.69-3.107-1.611-5.697-1.611c-2.994,0-4.662,1.727-4.662,3.799
		c0,2.302,1.668,3.338,5.295,4.72c4.834,1.842,7.31,4.259,7.31,8.402c0,4.893-3.799,8.346-10.418,8.346
		c-3.05,0-5.87-0.748-7.827-1.899L372.773,79.452z"/>
	<path fill="#EC1C24" d="M396.259,43.767h5.065v17.383h0.115c0.805-1.439,2.071-2.706,3.625-3.569
		c1.497-0.863,3.281-1.438,5.181-1.438c3.741,0,9.727,2.302,9.727,11.914v16.576h-5.065V68.631c0-4.489-1.668-8.288-6.445-8.288
		c-3.281,0-5.871,2.303-6.792,5.065c-0.288,0.69-0.345,1.438-0.345,2.417v16.807h-5.065V43.767z"/>
</g>
</svg>
