<?xml version="1.0" encoding="utf-8"?>
<!-- Generator: Adobe Illustrator 16.0.0, SVG Export Plug-In . SVG Version: 6.00 Build 0)  -->
<!DOCTYPE svg PUBLIC "-//W3C//DTD SVG 1.1//EN" "http://www.w3.org/Graphics/SVG/1.1/DTD/svg11.dtd">
<svg version="1.1" id="Capa_1" xmlns="http://www.w3.org/2000/svg" xmlns:xlink="http://www.w3.org/1999/xlink" x="0px" y="0px"
	 width="640px" height="480px" viewBox="0 0 640 480" enable-background="new 0 0 640 480" xml:space="preserve">
<g>
	<g>
		<g>
			<path fill="#010002" d="M408.301,268.746c5.568,2.372,11.121,4.813,16.744,7.008c2.7,1.068,3.716,2.838,4.279,5.635
				c1.262,6.391,0.246,12.52-1.262,18.676c-1.124,4.677-3.208,6.35-7.953,7.117c-1.4,0.232-2.811,1.056-3.963,1.947
				c-1.041,0.809-1.987,1.741-2.947,2.661c11.462,4.881,23.325,10.312,35.157,16.385c5.677,2.921,10.682,6.568,14.892,10.902
				l3.882,4.017v19.24c30.962,0,61.924,0,92.875,0c-2.62-17.553-13.315-27.959-29.482-33.938
				c-10.532-3.881-20.857-8.379-31.1-13.014c-2.921-1.358-5.088-4.266-7.706-6.267c-1.151-0.878-2.578-1.715-3.934-1.961
				c-4.771-0.754-6.855-2.44-7.981-7.131c-1.467-6.143-2.551-12.285-1.262-18.662c0.563-2.797,1.576-4.566,4.279-5.635
				c5.648-2.182,11.161-4.636,16.743-7.008c4.183-1.77,4.415-3.207,2.921-7.528c-4.798-13.561-8.351-27.384-9.502-41.892
				c-0.754-9.16-0.508-18.525-2.7-27.521h-0.343c-0.193-0.837-0.287-1.673-0.508-2.496c-4.045-15.866-21.048-24.49-35.352-25.41
				c-0.138-0.014-0.246-0.042-0.343-0.042c-1.096-0.069-2.139,0.097-3.208,0.166c-6.019,0.836-10.957,4.649-16.688,6.322
				c-7.445,2.195-12.025,9.05-14.809,16.427c-3.935,10.491-3.208,21.68-4.1,32.539c-1.151,14.521-4.719,28.317-9.503,41.877
				C403.871,265.509,404.146,266.991,408.301,268.746z"/>
			<path fill="#010002" d="M179.208,343.26l4.359-4.1c3.962-3.717,8.694-7.007,14.906-10.312l4.359-2.358
				c6.184-3.332,12.34-6.664,18.704-9.695c3.346-1.59,6.83-3.004,10.256-4.456c-0.727-2.002-1.441-4.003-2.057-6.032
				c-0.809-2.578-1.316-5.171-4.663-5.869c-0.836-0.18-1.864-1.604-2.001-2.579c-0.671-4.978-1.179-9.996-1.521-15.029
				c-0.083-1.041,0.466-2.44,1.207-3.235c4.373-4.895,6.816-10.571,7.802-17.086c0.508-3.236,2.344-6.295,3.277-9.476
				c1.262-4.306,2.289-8.693,3.277-13.066c0.356-1.577,0.152-3.277,0.397-4.895c0.356-2.358,0.288-4.183-2.537-5.088
				c-0.795-0.26-1.427-2.112-1.441-3.263c-0.151-6.993-0.055-13.986-0.083-20.979c-0.055-4.279,0-8.611-0.301-12.876
				c-0.618-8.213-5.43-13.986-11.462-18.964c-8.832-7.253-19.088-14.11-30.208-13.219c-0.273,0.014-0.494,0.083-0.754,0.125
				c-0.259-0.042-0.466-0.11-0.753-0.125c-11.134-0.892-21.404,5.966-30.195,13.219c-6.032,4.978-10.847,10.75-11.462,18.964
				c-0.301,4.279-0.288,8.597-0.301,12.876c-0.027,7.007,0.055,14-0.083,20.979c-0.028,1.151-0.671,3.017-1.453,3.263
				c-2.824,0.905-2.893,2.728-2.523,5.088c0.26,1.618,0.042,3.318,0.398,4.895c0.974,4.373,2.001,8.749,3.263,13.066
				c0.933,3.181,2.755,6.239,3.277,9.476c1.002,6.512,3.415,12.191,7.816,17.086c0.726,0.836,1.262,2.194,1.193,3.235
				c-0.343,5.033-0.851,10.024-1.535,15.029c-0.138,0.961-1.166,2.413-2.002,2.579c-3.332,0.698-3.854,3.276-4.649,5.869
				c-1.041,3.429-2.167,6.855-3.498,10.174c-0.412,1.002-1.441,2.084-2.468,2.564c-5.924,2.578-11.971,4.937-17.937,7.459
				c-6.35,2.647-12.766,5.21-18.95,8.173c-6.43,3.059-12.617,6.513-18.84,9.858c-3.702,1.974-7.145,4.155-10.024,6.855v10.982
				c33.061,0,66.093,0,99.128,0v-19.102h0.083V343.26L179.208,343.26z"/>
		</g>
		<path fill="#010002" d="M442.061,340.447c-21.803-11.162-44.346-20.433-67.164-29.193c-1.715-0.657-3.744-1.946-4.442-3.456
			c-1.853-4.113-3.139-8.462-4.47-12.794c-0.836-2.755-1.549-5.375-4.607-6.678c-0.809-0.342-1.521-1.96-1.521-2.977
			c0.166-10.01-2.139-20.525,5.279-29.274c0.246-0.288,0.287-0.671,0.48-0.975c3.988-8.776,4.717-18.787,10.311-26.958
			c0.139-0.193,0.166-0.453,0.193-0.699c0.644-6.226,1.344-12.438,1.852-18.663c0.056-0.782-0.617-2.14-1.289-2.386
			c-3.086-1.096-2.92-3.564-2.893-6.046c0-12.164,0-24.325-0.027-36.489c0-7.076-2.085-13.37-7.418-18.168
			c-6.074-5.458-12.342-10.75-18.58-16.043c-3.031-2.564-3.264-4.511-0.453-7.335c1.262-1.234,2.865-2.112,4.279-3.153
			c-0.287-0.48-0.619-0.947-0.906-1.427c-1.904,0-3.826-0.26-5.648,0.042c-6.91,1.11-13.875,2.084-20.65,3.702
			c-12.959,3.059-25.559,7.117-36.105,15.783c-7.186,5.952-12.917,12.862-13.671,22.625c-0.342,5.129-0.301,10.27-0.342,15.399
			c-0.042,8.351,0.069,16.73-0.11,25.065c-0.028,1.372-0.823,3.592-1.742,3.895c-3.374,1.096-3.47,3.25-3.031,6.074
			c0.315,1.933,0.083,3.962,0.494,5.855c1.165,5.224,2.413,10.45,3.909,15.59c1.124,3.826,3.305,7.446,3.909,11.341
			c1.206,7.774,4.086,14.563,9.351,20.419c0.851,0.961,1.521,2.592,1.427,3.881c-0.412,5.994-1.016,11.971-1.838,17.923
			c-0.179,1.165-1.4,2.894-2.399,3.112c-3.976,0.85-4.594,3.895-5.527,6.992c-1.262,4.101-2.579,8.187-4.196,12.15
			c-0.48,1.234-1.728,2.537-2.935,3.059c-7.089,3.101-14.287,5.938-21.418,8.898c-7.598,3.181-15.234,6.239-22.625,9.762
			c-7.652,3.661-15.057,7.747-22.516,11.767c-4.387,2.33-8.515,4.937-11.957,8.199v13.095c86.757,0,173.517,0,260.288,0v-13.644
			C450.151,345.41,446.408,342.669,442.061,340.447z"/>
	</g>
</g>
</svg>
