<?xml version="1.0" encoding="utf-8"?>
<!-- Generator: Adobe Illustrator 16.0.0, SVG Export Plug-In . SVG Version: 6.00 Build 0)  -->
<!DOCTYPE svg PUBLIC "-//W3C//DTD SVG 1.1//EN" "http://www.w3.org/Graphics/SVG/1.1/DTD/svg11.dtd">
<svg version="1.1" id="Capa_1" xmlns="http://www.w3.org/2000/svg" xmlns:xlink="http://www.w3.org/1999/xlink" x="0px" y="0px"
	 width="640px" height="480px" viewBox="0 0 640 480" enable-background="new 0 0 640 480" xml:space="preserve">
<g>
	<path d="M445.368,216.37c-16.554,11.874-39.791,27.666-50.272,27.666c-2.074,0-2.742-0.628-3.228-1.216
		c-4.279-5.275-3.122-23.775,3.448-54.964c0.651-3.088-0.979-6.193-3.875-7.415c-2.896-1.229-6.262-0.223-8.02,2.389
		c-22.613,33.718-32.971,40.792-37.664,40.792c-6.656,0-13.425-19.154-20.142-56.934c-0.532-3.015-3.079-5.211-6.101-5.386v-0.038
		c-0.064,0-0.125,0.014-0.188,0.014s-0.134-0.014-0.195-0.014v0.038c-3.012,0.174-5.548,2.371-6.094,5.386
		c-6.723,37.78-13.497,56.934-20.149,56.934c-4.697,0-15.045-7.077-37.658-40.792c-1.753-2.612-5.118-3.618-8.021-2.389
		c-2.902,1.221-4.529,4.326-3.877,7.415c6.568,31.188,7.737,49.688,3.447,54.964c-0.475,0.594-1.152,1.216-3.224,1.216
		c-10.482,0-33.719-15.787-50.281-27.666c-2.617-1.881-6.207-1.574-8.479,0.703c-2.274,2.269-2.573,5.859-0.697,8.479
		c37.865,48.429,30.738,104.007,30.738,104.007c-0.138,0.769-0.211,1.557-0.211,2.385c0,13.655,19.119,19.059,35.771,22.239
		c18.348,3.517,42.515,5.474,68.191,5.543v0.008c0.245,0,0.494,0,0.74-0.008c0.245,0.008,0.492,0.008,0.743,0.008v-0.008
		c25.668-0.069,49.839-2.026,68.181-5.543c16.653-3.182,35.777-8.596,35.777-22.239c0-0.828-0.073-1.609-0.21-2.385
		c0,0-7.124-55.592,30.731-104.007c1.88-2.617,1.584-6.21-0.688-8.479C451.579,214.803,447.994,214.493,445.368,216.37z
		 M319.262,341.388c-40.805-0.119-67.78-4.866-79.685-8.94c11.906-4.081,40.358-8.83,81.163-8.944
		c40.803,0.114,67.773,4.863,79.681,8.944C388.52,336.521,360.064,341.269,319.262,341.388z"/>
	<circle cx="319.325" cy="133.399" r="19.899"/>
	<circle cx="235.33" cy="157.44" r="16.582"/>
	<path d="M401.941,174.022c9.156,0,16.58-7.426,16.58-16.583c0-9.158-7.424-16.581-16.58-16.581
		c-9.162,0-16.584,7.423-16.584,16.581C385.357,166.597,392.779,174.022,401.941,174.022z"/>
	<circle cx="171.342" cy="204.685" r="11.178"/>
	<path d="M466.957,193.507c-6.171,0-11.179,5.004-11.179,11.177c0,6.174,5.008,11.179,11.179,11.179
		c6.175,0,11.179-5.005,11.179-11.179C478.136,198.511,473.132,193.507,466.957,193.507z"/>
	<path fill="none" d="M239.577,332.447c11.905,4.074,38.88,8.821,79.685,8.94c40.802-0.119,69.257-4.866,81.159-8.94
		c-11.907-4.081-38.878-8.83-79.681-8.944C279.935,323.617,251.483,328.366,239.577,332.447z"/>
</g>
<path fill="#FFFFFF" d="M111.016,387.389c-0.236,0-0.461,0.011-0.694,0.011c-0.235,0-0.454-0.011-0.689-0.011"/>
</svg>
